<svg width="25" height="25" viewBox="0 0 25 25" fill="none" xmlns="http://www.w3.org/2000/svg">
<path id="Vector" d="M16.7027 24.5073V15.2193H19.8134L20.2787 11.6087H16.7027V9.30466C16.7027 8.25932 16.9934 7.54599 18.4921 7.54599H20.4041V4.31666C19.4785 4.21845 18.5482 4.17082 17.6174 4.17399C14.8614 4.17399 12.9747 5.85666 12.9747 8.94732V11.6087H9.85741V15.2193H12.9747V24.5073H1.50008C1.14646 24.5073 0.807321 24.3668 0.557272 24.1168C0.307224 23.8668 0.166748 23.5276 0.166748 23.174V1.84066C0.166748 1.48704 0.307224 1.1479 0.557272 0.897848C0.807321 0.6478 1.14646 0.507324 1.50008 0.507324H22.8334C23.187 0.507324 23.5262 0.6478 23.7762 0.897848C24.0263 1.1479 24.1667 1.48704 24.1667 1.84066V23.174C24.1667 23.5276 24.0263 23.8668 23.7762 24.1168C23.5262 24.3668 23.187 24.5073 22.8334 24.5073H16.7027Z" fill="#4852AE"/>
</svg>
