<svg width="25" height="25" viewBox="0 0 25 25" fill="none" xmlns="http://www.w3.org/2000/svg">
<path id="Vector" d="M12.5 9.64982C11.9349 9.65004 11.3825 9.81781 10.9128 10.1319C10.443 10.446 10.0769 10.8924 9.86078 11.4145C9.64466 11.9367 9.58823 12.5112 9.69861 13.0655C9.80899 13.6197 10.0812 14.1287 10.4809 14.5283C10.8806 14.9278 11.3897 15.1998 11.944 15.31C12.4983 15.4202 13.0728 15.3635 13.5948 15.1472C14.1169 14.9309 14.5631 14.5646 14.8771 14.0948C15.191 13.6249 15.3586 13.0724 15.3586 12.5073C15.358 11.7495 15.0566 11.0228 14.5206 10.487C13.9846 9.95122 13.2579 9.65011 12.5 9.64982ZM19.1809 7.4534C19.0354 7.08474 18.8158 6.74991 18.5355 6.46967C18.2553 6.18943 17.9204 5.96976 17.5518 5.82429C16.4268 5.38018 13.7482 5.47982 12.5 5.47982C11.2518 5.47982 8.57589 5.37643 7.44768 5.82429C7.07902 5.96976 6.74419 6.18943 6.46395 6.46967C6.18371 6.74991 5.96404 7.08474 5.81857 7.4534C5.375 8.5784 5.47411 11.2596 5.47411 12.5068C5.47411 13.7539 5.375 16.432 5.82071 17.5607C5.96618 17.9294 6.18585 18.2642 6.46609 18.5444C6.74633 18.8247 7.08117 19.0444 7.44982 19.1898C8.57482 19.6339 11.2534 19.5343 12.5021 19.5343C13.7509 19.5343 16.4257 19.6377 17.5539 19.1898C17.9226 19.0444 18.2574 18.8247 18.5377 18.5444C18.8179 18.2642 19.0376 17.9294 19.183 17.5607C19.6304 16.4357 19.5275 13.7545 19.5275 12.5073C19.5275 11.2602 19.6304 8.58268 19.183 7.45393L19.1809 7.4534ZM12.5 16.9002C11.6312 16.9002 10.7819 16.6425 10.0595 16.1599C9.33706 15.6772 8.77401 14.9911 8.44153 14.1884C8.10904 13.3857 8.02205 12.5025 8.19155 11.6503C8.36105 10.7982 8.77943 10.0155 9.39378 9.4011C10.0081 8.78675 10.7909 8.36837 11.643 8.19887C12.4951 8.02938 13.3784 8.11637 14.1811 8.44885C14.9838 8.78134 15.6698 9.34438 16.1525 10.0668C16.6352 10.7892 16.8929 11.6385 16.8929 12.5073C16.8936 13.0844 16.7804 13.6559 16.5599 14.1892C16.3394 14.7225 16.0158 15.2071 15.6078 15.6151C15.1997 16.0232 14.7152 16.3467 14.1819 16.5672C13.6486 16.7877 13.0771 16.9009 12.5 16.9002ZM17.0739 8.95554C16.8711 8.95564 16.6728 8.8956 16.5041 8.783C16.3354 8.67039 16.2039 8.51029 16.1262 8.32294C16.0486 8.13559 16.0282 7.92941 16.0677 7.73047C16.1072 7.53154 16.2048 7.34879 16.3482 7.20533C16.4915 7.06188 16.6742 6.96417 16.8732 6.92457C17.0721 6.88496 17.2783 6.90523 17.4657 6.98282C17.653 7.06041 17.8132 7.19184 17.9259 7.36047C18.0386 7.5291 18.0988 7.72736 18.0988 7.93018C18.0993 8.06487 18.0733 8.19834 18.0221 8.32294C17.971 8.44754 17.8958 8.56082 17.8008 8.65629C17.7058 8.75175 17.5928 8.82751 17.4685 8.87923C17.3441 8.93095 17.2108 8.95761 17.0761 8.95768L17.0739 8.95554ZM21.9286 0.507324H3.07143C2.38944 0.507324 1.73539 0.778242 1.25315 1.26048C0.770918 1.74271 0.5 2.39677 0.5 3.07875L0.5 21.9359C0.5 22.6179 0.770918 23.2719 1.25315 23.7542C1.73539 24.2364 2.38944 24.5073 3.07143 24.5073H21.9286C22.6106 24.5073 23.2646 24.2364 23.7468 23.7542C24.2291 23.2719 24.5 22.6179 24.5 21.9359V3.07875C24.5 2.39677 24.2291 1.74271 23.7468 1.26048C23.2646 0.778242 22.6106 0.507324 21.9286 0.507324ZM21.0114 16.043C20.9423 17.4161 20.6289 18.6327 19.6266 19.6323C18.6243 20.632 17.4088 20.9518 16.0373 21.0171C14.6225 21.097 10.3807 21.097 8.96589 21.0171C7.59286 20.948 6.38054 20.6341 5.37661 19.6323C4.37268 18.6305 4.05714 17.4134 3.99179 16.043C3.91196 14.6277 3.91196 10.3854 3.99179 8.97161C4.06089 7.59857 4.37054 6.38197 5.37661 5.38232C6.38268 4.38268 7.59821 4.06661 8.96589 4.00125C10.3807 3.92143 14.6225 3.92143 16.0373 4.00125C17.4104 4.07036 18.6264 4.38429 19.6266 5.38607C20.6268 6.38786 20.9461 7.605 21.0114 8.97804C21.0913 10.388 21.0913 14.6266 21.0114 16.043Z" fill="#4852AE"/>
</svg>
