<svg width="25" height="25" viewBox="0 0 25 25" fill="none" xmlns="http://www.w3.org/2000/svg">
<path id="Vector" d="M21.8333 0.507324C22.5406 0.507324 23.2189 0.788276 23.719 1.28837C24.219 1.78847 24.5 2.46675 24.5 3.17399V21.8407C24.5 22.5479 24.219 23.2262 23.719 23.7263C23.2189 24.2264 22.5406 24.5073 21.8333 24.5073H3.16667C2.45942 24.5073 1.78115 24.2264 1.28105 23.7263C0.780951 23.2262 0.5 22.5479 0.5 21.8407V3.17399C0.5 2.46675 0.780951 1.78847 1.28105 1.28837C1.78115 0.788276 2.45942 0.507324 3.16667 0.507324H21.8333ZM21.1667 21.174V14.1073C21.1667 12.9545 20.7087 11.8489 19.8936 11.0338C19.0784 10.2186 17.9728 9.76066 16.82 9.76066C15.6867 9.76066 14.3667 10.454 13.7267 11.494V10.014H10.0067V21.174H13.7267V14.6007C13.7267 13.574 14.5533 12.734 15.58 12.734C16.0751 12.734 16.5499 12.9307 16.8999 13.2807C17.25 13.6308 17.4467 14.1056 17.4467 14.6007V21.174H21.1667ZM5.67333 7.92066C6.26742 7.92066 6.83717 7.68466 7.25725 7.26458C7.67733 6.8445 7.91333 6.27474 7.91333 5.68066C7.91333 4.44066 6.91333 3.42732 5.67333 3.42732C5.07571 3.42732 4.50257 3.66473 4.07999 4.08731C3.6574 4.50989 3.42 5.08304 3.42 5.68066C3.42 6.92066 4.43333 7.92066 5.67333 7.92066ZM7.52667 21.174V10.014H3.83333V21.174H7.52667Z" fill="#4852AE"/>
</svg>
