<svg width="31" height="25" viewBox="0 0 31 25" fill="none" xmlns="http://www.w3.org/2000/svg">
<path id="Vector" d="M30.1478 4.25432C30.8333 6.92732 30.8333 12.5073 30.8333 12.5073C30.8333 12.5073 30.8333 18.0873 30.1478 20.7603C29.7668 22.2378 28.6523 23.4003 27.2408 23.7933C24.6773 24.5073 15.8333 24.5073 15.8333 24.5073C15.8333 24.5073 6.99375 24.5073 4.42575 23.7933C3.00825 23.3943 1.89525 22.2333 1.51875 20.7603C0.833252 18.0873 0.833252 12.5073 0.833252 12.5073C0.833252 12.5073 0.833252 6.92732 1.51875 4.25432C1.89975 2.77682 3.01425 1.61432 4.42575 1.22132C6.99375 0.507324 15.8333 0.507324 15.8333 0.507324C15.8333 0.507324 24.6773 0.507324 27.2408 1.22132C28.6583 1.62032 29.7713 2.78132 30.1478 4.25432ZM12.8333 17.7573L21.8333 12.5073L12.8333 7.25732V17.7573Z" fill="#4852AE"/>
</svg>
